<svg xmlns="http://www.w3.org/2000/svg" viewBox="0 0 300 200"><path d="M24.46,16.17h7.15v7.08H38.2V16.17h7.15V37.61H38.2V30.47H31.67v7.14H24.46M54.8,23.32H48.49V16.17h19.8v7.15H62V37.61H54.8M71.43,16.17h7.49l4.6,7.55,4.6-7.55h7.49V37.61H88.46V27l-5,7.71-5-7.71V37.61h-7M99.15,16.17h7.15V30.53h10.14v7.08H99.15"/><path d="M24.21,162.57,14,47.44H126.73L116.47,162.51l-46.22,12.8" fill="#e44d26"/><path d="M70.34,165.52V56.89h46.1l-8.8,98.22" fill="#f16529"/><path d="M34.91,71H70.34V85.08h-20l1.3,14.45H70.34v14.08H38.76m.62,7.09H53.56l1,11.28,15.79,4.23v14.73l-29-8.08" fill="#ebebeb"/><path d="M105.65,71H70.28V85.08h34.07m-1.28,14.45H70.28v14.11H87.69L86,132l-15.76,4.23v14.67l28.91-8" fill="#fff"/><polygon points="286.04 47.44 275.77 162.51 229.6 175.31 183.56 162.53 173.29 47.44 286.04 47.44" fill="#264de4"/><polygon points="266.98 155.18 275.76 56.85 229.67 56.85 229.67 165.53 266.98 155.18" fill="#2965f1"/><polygon points="196.82 99.54 198.08 113.65 229.67 113.65 229.67 99.54 196.82 99.54" fill="#ebebeb"/><polygon points="229.67 70.97 229.62 70.97 194.28 70.97 195.56 85.08 229.67 85.08 229.67 70.97" fill="#ebebeb"/><polygon points="229.67 150.88 229.67 136.19 229.61 136.21 213.89 131.97 212.88 120.71 205.24 120.71 198.71 120.71 200.69 142.87 229.6 150.9 229.67 150.88" fill="#ebebeb"/><path d="M199.83,16.17h17.1v7.15H207v7.15h10v7.14h-17.1Z"/><path d="M220.34,16.17h17.1v6.21h-9.95v1.25h9.95V37.92h-17.1V31.4h9.95V30.15h-9.95Z"/><path d="M240.86,16.17H258v6.21H248v1.25H258V37.92h-17.1V31.4h9.95V30.15h-9.95Z"/><polygon points="247 113.65 245.36 131.96 229.62 136.21 229.62 150.89 258.56 142.87 258.77 140.49 262.09 103.33 262.43 99.54 264.98 70.97 229.62 70.97 229.62 85.08 249.51 85.08 248.23 99.54 229.62 99.54 229.62 113.65 247 113.65" fill="#fff"/></svg>