<svg width="128" height="128" viewBox="0 0 128 128" fill="none" xmlns="http://www.w3.org/2000/svg">
<path d="M22.84 93.3333L18.6667 90.8533L65.16 8L69.3333 10.48L22.84 93.3333Z" fill="#EC407A"/>
<path d="M18.6667 85.3334H114.667V90.6667H18.6667V85.3334Z" fill="#EC407A"/>
<path d="M65.8762 117.333L18.6667 89.6864L21.1125 85.3897L68.322 113.037L65.8762 117.333ZM106.888 45.277L59.678 17.6301L62.1239 13.3334L109.333 40.9803L106.888 45.277Z" fill="#EC407A"/>
<path d="M23.8293 45.3334L21.3333 41.0294L69.504 13.3334L72 17.6374L23.8293 45.3334Z" fill="#EC407A"/>
<path d="M107.719 93.3333L60.0244 10.4792L64.3056 8L112 90.8541L107.719 93.3333ZM21.3333 35.0381H26.277V90.2982H21.3333V35.0381ZM104.243 35.0381H109.187V90.2982H104.243V35.0381Z" fill="#EC407A"/>
<path d="M68.9093 114.667L66.6667 110.707L109.757 85.3334L112 89.2934L68.9093 114.667Z" fill="#EC407A"/>
<path d="M115.913 93.3321C113.048 98.3358 106.662 100.044 101.679 97.1671C96.6957 94.2907 94.9948 87.8787 97.8596 82.875C100.724 77.8713 107.11 76.1635 112.094 79.04C117.107 81.9463 118.808 88.3284 115.913 93.3321ZM32.7774 45.1237C29.9128 50.1274 23.5268 51.8352 18.5434 48.9588C13.5601 46.0824 11.8592 39.6704 14.724 34.6667C17.5887 29.663 23.9746 27.9552 28.958 30.8317C33.9414 33.738 35.6422 40.12 32.7774 45.1237ZM14.7537 93.3321C11.889 88.3284 13.5899 81.9462 18.5731 79.04C23.5565 76.1636 29.9127 77.8714 32.8071 82.875C35.6718 87.8787 33.9709 94.2608 28.9877 97.1671C23.9746 100.043 17.6184 98.3356 14.7537 93.3321ZM97.8893 45.1237C95.0246 40.12 96.7255 33.7379 101.709 30.8317C106.692 27.9553 113.048 29.6631 115.943 34.6667C118.807 39.6704 117.107 46.0525 112.123 48.9588C107.14 51.8352 100.754 50.1273 97.8893 45.1237ZM65.3332 122.667C59.574 122.667 54.919 117.993 54.919 112.21C54.919 106.427 59.574 101.753 65.3332 101.753C71.0924 101.753 75.7474 106.427 75.7474 112.21C75.7474 117.963 71.0924 122.667 65.3332 122.667ZM65.3332 26.2468C59.574 26.2468 54.919 21.5728 54.919 15.7901C54.919 10.0074 59.574 5.33337 65.3332 5.33337C71.0924 5.33337 75.7474 10.0074 75.7474 15.7901C75.7474 21.5728 71.0924 26.2468 65.3332 26.2468Z" fill="#EC407A"/>
</svg>
