<svg width="113" height="129" viewBox="0 0 113 129" fill="none" xmlns="http://www.w3.org/2000/svg">
<g clip-path="url(#clip0_202_2)">
<path fill-rule="evenodd" clip-rule="evenodd" d="M107.603 114.087C107.603 121.993 83.6351 128.434 54.0617 128.434C24.4882 128.434 0.519911 122.034 0.519911 114.087C0.519911 106.181 24.4882 99.7393 54.0617 99.7393C83.6351 99.7393 107.562 106.181 107.603 114.087Z" fill="black" fill-opacity="0.2"/>
<path fill-rule="evenodd" clip-rule="evenodd" d="M24.7392 98.6518C19.5523 91.2061 18.5484 66.945 30.6371 52.0119C36.6188 44.859 38.1664 39.8813 38.6266 33.1468C38.9612 25.492 33.2306 2.69493 54.8146 0.979918C76.6914 -0.77692 75.4783 20.8071 75.3529 32.2265C75.2692 41.8473 82.422 47.327 87.3579 54.8563C96.4349 68.66 95.682 92.4192 85.6429 105.303C72.9268 121.407 62.0511 114.421 54.8146 115.007C41.2618 115.802 40.8017 122.997 24.7392 98.6518Z" fill="black"/>
<path fill-rule="evenodd" clip-rule="evenodd" d="M77.528 56.2785C81.2926 59.7503 91.0389 75.2691 75.6038 84.9735C70.166 88.3617 80.4561 101.245 85.3919 95.0126C94.1343 83.8023 88.571 65.8993 83.3005 59.4994C79.7868 54.9818 74.349 53.2249 77.528 56.2785Z" fill="url(#paint0_linear_202_2)"/>
<path fill-rule="evenodd" clip-rule="evenodd" d="M76.4823 54.187C82.673 59.2066 93.9252 76.7749 77.4862 88.2362C72.0902 91.7917 82.2547 103.044 87.9854 97.3132C107.854 77.3187 87.4834 54.3543 80.4561 46.4486C74.1816 39.5467 68.6183 48.0381 76.4823 54.187Z" fill="black" stroke="black" stroke-width="0.5"/>
<path fill-rule="evenodd" clip-rule="evenodd" d="M67.5726 11.8974C67.3634 17.6281 61.0472 22.6058 53.476 23.0659C45.9049 23.526 39.9651 19.1757 40.1743 13.4451C40.3834 7.71447 46.6997 2.73676 54.2708 2.27663C61.8419 1.85834 67.7817 6.16677 67.5726 11.8974Z" fill="url(#paint1_linear_202_2)"/>
<path fill-rule="evenodd" clip-rule="evenodd" d="M49.4604 25.5338C49.6696 29.2567 47.9127 32.3939 45.4866 32.5194C43.0605 32.6448 40.9272 29.7586 40.718 26.0358C40.5089 22.313 42.2657 19.1757 44.6918 19.0503C47.118 18.9248 49.2513 21.811 49.4604 25.5338Z" fill="url(#paint2_linear_202_2)"/>
<path fill-rule="evenodd" clip-rule="evenodd" d="M53.8525 25.8266C53.9362 30.1351 56.7387 33.5651 60.0851 33.4814C63.4315 33.3978 66.0667 29.8423 65.9831 25.492C65.8994 21.1836 63.0968 17.7535 59.7505 17.8372C56.4041 17.9209 53.727 21.5182 53.8525 25.8266Z" fill="url(#paint3_linear_202_2)"/>
<path fill-rule="evenodd" clip-rule="evenodd" d="M56.6132 26.7887C56.5714 29.173 57.7426 31.0971 59.2903 31.0971C60.7962 31.0971 62.0929 29.173 62.1347 26.8305C62.1766 24.4463 61.0053 22.5221 59.4577 22.5221C57.91 22.5221 56.6551 24.4463 56.6132 26.7887Z" fill="black"/>
<path fill-rule="evenodd" clip-rule="evenodd" d="M46.9506 26.8305C47.1598 28.7965 46.4069 30.4697 45.3193 30.637C44.2317 30.7625 43.186 29.2985 42.9768 27.3325C42.7677 25.3665 43.5206 23.6933 44.6082 23.526C45.6958 23.4005 46.7415 24.8646 46.9506 26.8305Z" fill="black"/>
<path fill-rule="evenodd" clip-rule="evenodd" d="M57.2407 25.4502C57.1152 26.7887 57.7426 27.8763 58.6211 27.9599C59.4995 28.0436 60.3361 26.9979 60.4616 25.7011C60.587 24.3626 59.9596 23.275 59.0812 23.1914C58.2028 23.1077 57.3662 24.1535 57.2407 25.4502Z" fill="url(#paint4_linear_202_2)"/>
<path fill-rule="evenodd" clip-rule="evenodd" d="M46.0304 25.7848C46.1559 26.8724 45.6958 27.8344 45.0265 27.9181C44.3572 28.0018 43.7298 27.1652 43.6043 26.0358C43.4788 24.9482 43.9389 23.9861 44.6082 23.9025C45.2775 23.8188 45.9049 24.6972 46.0304 25.7848Z" fill="url(#paint5_linear_202_2)"/>
<path fill-rule="evenodd" clip-rule="evenodd" d="M32.8541 66.8614C35.824 60.1268 42.1403 48.2891 42.2657 39.1284C42.2657 31.8501 64.0589 30.0932 65.8157 37.3716C67.5726 44.6499 72.0065 55.5256 74.8509 60.7961C77.6953 66.0248 85.9357 82.7147 77.1515 97.2714C69.2458 110.155 45.2775 120.361 32.4776 95.5146C28.1274 86.8977 28.9221 76.2312 32.8541 66.8614Z" fill="url(#paint6_linear_202_2)"/>
<path fill-rule="evenodd" clip-rule="evenodd" d="M30.177 61.8418C27.6254 66.6522 22.3549 79.2847 35.2384 86.1866C49.0839 93.5486 49.0421 108.649 32.394 101.454C17.168 94.9708 23.9026 68.7019 28.1692 62.4274C30.9299 58.0353 35.1129 52.6393 30.177 61.8418Z" fill="url(#paint7_linear_202_2)"/>
<path fill-rule="evenodd" clip-rule="evenodd" d="M32.3521 56.404C28.2947 63.013 18.5902 78.5736 31.5992 86.6885C49.0839 97.4387 44.1481 108.147 28.1692 98.4845C5.66494 85.0154 25.4503 57.8262 34.4436 47.4525C44.7337 35.8239 36.4096 49.5858 32.3521 56.404Z" fill="black" stroke="black" stroke-width="0.5"/>
<path fill-rule="evenodd" clip-rule="evenodd" d="M71.7555 69.413C71.7555 76.7749 64.6863 86.3121 52.5558 86.2284C40.0488 86.3121 34.7364 76.7749 34.7364 69.413C34.7364 62.051 43.0187 56.0694 53.2251 56.0694C63.4733 56.1112 71.7555 62.051 71.7555 69.413Z" fill="url(#paint8_linear_202_2)"/>
<path fill-rule="evenodd" clip-rule="evenodd" d="M65.1465 46.2812C65.021 53.8942 60.0433 55.6929 53.7688 55.6929C47.4944 55.6929 42.935 54.5635 42.3912 46.2812C42.3912 41.0944 47.4944 38.0827 53.7688 38.0827C60.0433 38.0408 65.1465 41.0526 65.1465 46.2812Z" fill="url(#paint9_linear_202_2)"/>
<path fill-rule="evenodd" clip-rule="evenodd" d="M27.2071 57.9935C31.3064 51.7609 39.9651 42.182 28.8385 59.3321C19.8033 73.4704 25.4921 82.5474 28.4202 85.0572C36.8697 92.5865 36.5351 97.6479 29.8842 93.6741C15.6204 85.1827 18.5902 70.877 27.2071 57.9935Z" fill="url(#paint10_linear_202_2)"/>
<path fill-rule="evenodd" clip-rule="evenodd" d="M86.5632 60.5451C83.0077 53.2249 71.7137 34.6527 87.1069 56.2367C101.12 75.771 91.2899 89.3656 89.5331 90.7042C87.7762 92.0427 81.8783 94.7616 83.5933 90.0349C85.3501 85.3082 94.0506 76.3567 86.5632 60.5451Z" fill="url(#paint11_linear_202_2)"/>
<path fill-rule="evenodd" clip-rule="evenodd" d="M24.1117 118.27C14.7419 113.292 1.14735 119.232 6.08323 105.763C7.08714 102.709 4.6192 98.108 6.20872 95.1381C8.09105 91.4989 12.1485 92.2937 14.5746 89.8676C16.9589 87.3578 18.4648 83.0075 22.9405 83.6768C27.3744 84.3461 30.3443 89.7839 33.4397 96.4766C35.7403 101.245 43.8553 107.98 43.3115 113.334C42.6422 121.532 33.3142 123.08 24.1117 118.27Z" fill="url(#paint12_linear_202_2)" stroke="#E68C3F" stroke-width="0.5"/>
<path fill-rule="evenodd" clip-rule="evenodd" d="M92.3356 86.6467C90.9134 89.3238 84.9736 93.6322 80.9998 92.5028C76.9842 91.4153 75.1437 85.3082 75.9385 80.6651C76.6914 75.4782 80.9998 75.1854 86.4377 77.7789C92.2938 80.6651 94.0506 83.0912 92.3356 86.6467Z" fill="url(#paint13_linear_202_2)"/>
<path fill-rule="evenodd" clip-rule="evenodd" d="M89.0729 115.969C95.933 107.645 111.201 109.36 100.911 97.9407C98.7355 95.4727 99.4048 90.2022 96.7277 87.9434C93.5905 85.1827 90.1187 87.4415 86.9396 86.0193C83.7606 84.4716 80.4142 81.5017 76.5241 83.5932C72.6339 85.7265 72.2157 91.248 71.8392 98.5263C71.5045 103.755 66.736 112.497 69.2876 117.308C72.9686 124.753 82.5475 123.749 89.0729 115.969Z" fill="url(#paint14_linear_202_2)" stroke="#E68C3F" stroke-width="0.5"/>
<path fill-rule="evenodd" clip-rule="evenodd" d="M86.103 104.843C96.7277 89.1565 88.822 89.282 86.1449 88.0689C83.4678 86.814 80.6652 84.3461 77.528 86.0611C74.3908 87.8179 74.2235 92.3355 74.1398 98.2753C74.0143 102.542 70.4588 109.695 72.5921 113.669C75.1855 118.312 81.46 111.577 86.103 104.843Z" fill="url(#paint15_linear_202_2)"/>
<path fill-rule="evenodd" clip-rule="evenodd" d="M21.9366 107.101C6.0414 96.8113 13.4871 93.2976 15.8713 91.6662C18.7576 89.5748 18.7994 85.5591 22.3549 85.9356C25.9104 86.3121 28.0019 90.7042 30.3862 96.142C32.143 100.032 38.2501 105.219 37.79 109.695C37.2044 114.965 28.7966 111.493 21.9366 107.101Z" fill="url(#paint16_linear_202_2)"/>
<path fill-rule="evenodd" clip-rule="evenodd" d="M91.4154 86.5212C90.1605 88.6963 85.0573 92.1264 81.6691 91.2061C78.1973 90.3277 76.6077 85.4336 77.3188 81.7527C77.9463 77.5697 81.6691 77.3606 86.354 79.452C91.3317 81.7108 92.8794 83.635 91.4154 86.5212Z" fill="black"/>
<path fill-rule="evenodd" clip-rule="evenodd" d="M87.9854 85.3082C87.1906 86.814 83.8442 89.1983 81.5018 88.5709C79.1593 87.9434 77.9881 84.5552 78.3646 82.0036C78.6992 79.1174 81.209 78.9501 84.388 80.3723C87.818 81.9618 88.9056 83.3003 87.9854 85.3082Z" fill="url(#paint17_linear_202_2)"/>
<path fill-rule="evenodd" clip-rule="evenodd" d="M44.7337 30.7207C46.4069 29.173 50.4643 24.4463 58.1609 29.3821C59.5831 30.3024 60.7544 30.386 63.4733 31.5573C68.9529 33.8161 66.3595 39.2539 60.5034 41.0944C57.9936 41.8892 55.7348 44.9427 51.2172 44.6499C47.3271 44.4408 46.3232 41.8892 43.9389 40.5088C39.7141 38.1245 39.0867 34.9036 41.3873 33.1886C43.6879 31.4736 44.5664 30.8462 44.7337 30.7207Z" fill="url(#paint18_linear_202_2)" stroke="#E68C3F" stroke-width="0.5"/>
<path d="M63.5569 35.1128C61.2563 35.2383 56.2786 40.216 51.0499 40.216C45.8212 40.216 42.684 35.3638 41.8893 35.3638" stroke="#E68C3F" stroke-width="0.5"/>
<path fill-rule="evenodd" clip-rule="evenodd" d="M47.3271 30.3024C48.1637 29.5495 50.799 27.4998 54.2708 29.5913C55.0237 30.0096 55.7767 30.4697 56.8642 31.0971C59.0812 32.3939 57.9936 34.2762 55.3165 35.4474C54.1035 35.9494 52.0957 37.0369 50.5898 36.9533C48.9166 36.786 47.7872 35.6984 46.6997 34.9873C44.65 33.6487 44.7755 32.5194 45.7376 31.6409C46.4487 30.9717 47.2434 30.3442 47.3271 30.3024Z" fill="url(#paint19_linear_202_2)"/>
</g>
<defs>
<linearGradient id="paint0_linear_202_2" x1="81.78" y1="103.098" x2="84.5262" y2="72.3088" gradientUnits="userSpaceOnUse">
<stop stop-color="#FFEED7"/>
<stop offset="1" stop-color="#BDBFC2"/>
</linearGradient>
<linearGradient id="paint1_linear_202_2" x1="55.0812" y1="2.74985" x2="53.7708" y2="21.1945" gradientUnits="userSpaceOnUse">
<stop stop-color="white" stop-opacity="0.8"/>
<stop offset="1" stop-color="white" stop-opacity="0"/>
</linearGradient>
<linearGradient id="paint2_linear_202_2" x1="45.2524" y1="30.9394" x2="44.4454" y2="20.3955" gradientUnits="userSpaceOnUse">
<stop stop-color="#FFEED7"/>
<stop offset="1" stop-color="#BDBFC2"/>
</linearGradient>
<linearGradient id="paint3_linear_202_2" x1="59.9075" y1="31.2125" x2="59.9073" y2="19.9967" gradientUnits="userSpaceOnUse">
<stop stop-color="#FFEED7"/>
<stop offset="1" stop-color="#BDBFC2"/>
</linearGradient>
<linearGradient id="paint4_linear_202_2" x1="58.978" y1="23.3349" x2="58.4252" y2="27.6351" gradientUnits="userSpaceOnUse">
<stop stop-color="white" stop-opacity="0.65"/>
<stop offset="1" stop-color="white" stop-opacity="0"/>
</linearGradient>
<linearGradient id="paint5_linear_202_2" x1="44.7086" y1="24.1174" x2="45.3037" y2="27.6002" gradientUnits="userSpaceOnUse">
<stop stop-color="white" stop-opacity="0.65"/>
<stop offset="1" stop-color="white" stop-opacity="0"/>
</linearGradient>
<linearGradient id="paint6_linear_202_2" x1="55.3101" y1="102.793" x2="55.3101" y2="64.4058" gradientUnits="userSpaceOnUse">
<stop stop-color="#FFEED7"/>
<stop offset="1" stop-color="#BDBFC2"/>
</linearGradient>
<linearGradient id="paint7_linear_202_2" x1="34.8924" y1="103.337" x2="25.0943" y2="69.9349" gradientUnits="userSpaceOnUse">
<stop stop-color="#FFEED7"/>
<stop offset="1" stop-color="#BDBFC2"/>
</linearGradient>
<linearGradient id="paint8_linear_202_2" x1="53.1872" y1="60.0592" x2="53.2855" y2="84.6225" gradientUnits="userSpaceOnUse">
<stop stop-color="white" stop-opacity="0.8"/>
<stop offset="1" stop-color="white" stop-opacity="0"/>
</linearGradient>
<linearGradient id="paint9_linear_202_2" x1="53.7523" y1="44.6558" x2="53.8613" y2="54.4226" gradientUnits="userSpaceOnUse">
<stop stop-color="white" stop-opacity="0.65"/>
<stop offset="1" stop-color="white" stop-opacity="0"/>
</linearGradient>
<linearGradient id="paint10_linear_202_2" x1="27.3754" y1="50.684" x2="27.3754" y2="86.5265" gradientUnits="userSpaceOnUse">
<stop stop-color="white" stop-opacity="0.65"/>
<stop offset="1" stop-color="white" stop-opacity="0"/>
</linearGradient>
<linearGradient id="paint11_linear_202_2" x1="86.8499" y1="47.1832" x2="86.8366" y2="79.5685" gradientUnits="userSpaceOnUse">
<stop stop-color="white" stop-opacity="0.65"/>
<stop offset="1" stop-color="white" stop-opacity="0"/>
</linearGradient>
<linearGradient id="paint12_linear_202_2" x1="25.5145" y1="101.893" x2="20.199" y2="120.344" gradientUnits="userSpaceOnUse">
<stop stop-color="#FFA63F"/>
<stop offset="1" stop-color="#FFFF00"/>
</linearGradient>
<linearGradient id="paint13_linear_202_2" x1="84.7678" y1="99.7872" x2="84.0085" y2="65.5117" gradientUnits="userSpaceOnUse">
<stop stop-color="#FFEED7"/>
<stop offset="1" stop-color="#BDBFC2"/>
</linearGradient>
<linearGradient id="paint14_linear_202_2" x1="79.4977" y1="96.3149" x2="93.9707" y2="116.819" gradientUnits="userSpaceOnUse">
<stop stop-color="#FFA63F"/>
<stop offset="1" stop-color="#FFFF00"/>
</linearGradient>
<linearGradient id="paint15_linear_202_2" x1="83.5758" y1="80.3561" x2="78.6296" y2="104.57" gradientUnits="userSpaceOnUse">
<stop stop-color="white" stop-opacity="0.65"/>
<stop offset="1" stop-color="white" stop-opacity="0"/>
</linearGradient>
<linearGradient id="paint16_linear_202_2" x1="24.3521" y1="86.3246" x2="25.3297" y2="113.491" gradientUnits="userSpaceOnUse">
<stop stop-color="white" stop-opacity="0.65"/>
<stop offset="1" stop-color="white" stop-opacity="0"/>
</linearGradient>
<linearGradient id="paint17_linear_202_2" x1="82.6513" y1="79.9164" x2="83.7966" y2="88.0456" gradientUnits="userSpaceOnUse">
<stop stop-color="white" stop-opacity="0.65"/>
<stop offset="1" stop-color="white" stop-opacity="0"/>
</linearGradient>
<linearGradient id="paint18_linear_202_2" x1="53.2077" y1="30.2684" x2="53.3032" y2="44.563" gradientUnits="userSpaceOnUse">
<stop stop-color="#FFA63F"/>
<stop offset="1" stop-color="#FFFF00"/>
</linearGradient>
<linearGradient id="paint19_linear_202_2" x1="51.5829" y1="28.9168" x2="51.5571" y2="36.4753" gradientUnits="userSpaceOnUse">
<stop stop-color="white" stop-opacity="0.65"/>
<stop offset="1" stop-color="white" stop-opacity="0"/>
</linearGradient>
<clipPath id="clip0_202_2">
<rect width="112" height="128" fill="white" transform="translate(0.5 0.5)"/>
</clipPath>
</defs>
</svg>
