<svg width="128" height="124" viewBox="0 0 128 124" fill="none" xmlns="http://www.w3.org/2000/svg">
<path fill-rule="evenodd" clip-rule="evenodd" d="M68.3784 3.98694C67.5389 3.98694 66.7591 4.16701 66.0393 4.40696C67.569 5.42661 68.4086 6.77625 68.8286 8.30549C68.8588 8.51573 68.9187 8.66564 68.9484 8.87542C68.9785 9.0555 69.0087 9.23511 69.0087 9.41518C69.1284 12.0546 68.3186 12.3841 67.7486 13.944C66.8789 15.9536 67.1188 18.1126 68.1687 19.8521C68.2587 20.0619 68.3784 20.3018 68.5288 20.5116C67.3889 12.9243 73.7171 11.7845 74.8867 9.41518C74.9767 7.34571 73.2669 5.96637 71.9177 5.00659C70.6275 4.22688 69.458 3.98694 68.3784 3.98694V3.98694ZM77.9159 5.69626C77.7952 6.38639 77.8857 6.20632 77.8556 6.566C77.8259 6.80595 77.8259 7.10577 77.7957 7.34571C77.7358 7.58566 77.676 7.8256 77.5859 8.06555C77.5256 8.30549 77.436 8.54544 77.346 8.78538C77.2258 9.02533 77.1362 9.23557 77.0165 9.47505C76.926 9.59526 76.8661 9.715 76.7761 9.8352L76.596 10.1049C76.4461 10.3151 76.2962 10.5249 76.1463 10.7049C75.9662 10.885 75.8167 11.0948 75.6065 11.2447V11.2749C75.4264 11.4248 75.2468 11.6044 75.0366 11.7548C74.4068 12.2342 73.6869 12.5943 73.027 13.0441C72.8172 13.194 72.6074 13.3142 72.4273 13.4943C72.2176 13.6442 72.0375 13.7941 71.8579 13.9737C71.6476 14.1538 71.4977 14.3338 71.3176 14.5436C71.1677 14.7237 70.9881 14.9335 70.8679 15.1437C70.718 15.3535 70.5681 15.5633 70.4479 15.7735C70.3282 16.0134 70.2381 16.2232 70.1184 16.4632C70.0283 16.7031 69.9383 16.9134 69.8784 17.1528C69.7984 17.3999 69.7282 17.6501 69.6682 17.9028C69.6385 18.0226 69.6385 18.1725 69.6083 18.2927C69.5782 18.4124 69.5782 18.5326 69.5485 18.6524C69.5485 18.8923 69.5183 19.1624 69.5183 19.4024C69.5183 19.582 69.5183 19.7621 69.5485 19.9421C69.5485 20.1821 69.5786 20.422 69.6385 20.6917C69.6687 20.9316 69.7285 21.1716 69.7884 21.4115C69.8784 21.6515 69.9383 21.8914 70.0283 22.1309C70.0887 22.2813 70.1783 22.4312 70.2381 22.5514L63.3405 19.8818C62.1709 19.5523 61.0311 19.252 59.8615 18.9824L57.9721 18.5322C56.1673 18.1723 54.3458 17.9022 52.5142 17.7228C52.4538 17.7228 52.4237 17.6926 52.3638 17.6926C50.5645 17.5125 48.7948 17.423 46.9954 17.423C45.676 17.423 44.3565 17.4828 43.0667 17.5729C41.2372 17.6926 39.4077 17.9325 37.5786 18.2324C37.1284 18.2927 36.6782 18.3823 36.229 18.4723C35.2989 18.6524 34.3995 18.8622 33.5297 19.0724L32.1801 19.4321C31.7299 19.6122 31.3103 19.8219 30.8903 20.002L29.9008 20.4522C29.8405 20.4819 29.7806 20.4819 29.7509 20.5116C29.4511 20.6615 29.181 20.7817 28.9109 20.9316C28.8213 20.9618 28.761 20.992 28.7011 21.0217C28.3716 21.1716 28.0416 21.3512 27.7715 21.5016C27.5617 21.5916 27.3515 21.7113 27.1719 21.8014C27.0818 21.8617 26.9616 21.9216 26.9017 21.9513C26.6316 22.1012 26.362 22.2511 26.122 22.4015C25.8519 22.5509 25.612 22.7013 25.4022 22.8512C25.1924 23.0011 24.9822 23.1208 24.8026 23.2708C24.7724 23.3009 24.7422 23.3009 24.7125 23.3311C24.5325 23.4508 24.3227 23.6007 24.1426 23.7506L24.0823 23.811L23.633 24.1707C23.5727 24.2004 23.5123 24.2607 23.4529 24.2904C23.303 24.4106 23.1531 24.5605 23.0027 24.6803C22.973 24.7406 22.9132 24.7703 22.883 24.8005C22.7029 24.9805 22.5233 25.13 22.3432 25.3101C22.3131 25.3101 22.3131 25.3402 22.2829 25.3704C22.1033 25.5203 21.9232 25.6999 21.7431 25.88C21.7134 25.9102 21.7134 25.9403 21.6833 25.9403C21.526 26.093 21.3759 26.253 21.2336 26.4197C21.1732 26.4801 21.0836 26.54 21.0238 26.5998C20.8739 26.7799 20.6938 26.9595 20.5137 27.1396C20.4835 27.1999 20.4237 27.2296 20.394 27.2895C20.154 27.5294 19.9438 27.7694 19.7038 28.0093L19.6143 28.0994C19.1344 28.609 18.6243 29.119 18.0846 29.5687C17.5528 30.0432 16.9918 30.4839 16.4049 30.8882C15.8233 31.2961 15.2229 31.6765 14.6056 32.0281C13.9935 32.3639 13.3627 32.6643 12.7162 32.928C12.0783 33.1989 11.4278 33.439 10.7669 33.6474C9.50732 33.9175 8.21755 34.4271 7.10786 34.5171C6.86792 34.5171 6.59827 34.5774 6.35832 34.6071C6.08821 34.6675 5.84826 34.7273 5.60832 34.7872L4.88895 35.0573C4.64854 35.1469 4.40859 35.2671 4.16865 35.3868C3.95887 35.5368 3.71892 35.657 3.50914 35.8069C3.2989 35.9568 3.08912 36.1364 2.90905 36.3169C2.69927 36.4668 2.48949 36.6766 2.30942 36.8567C2.12934 37.0665 1.94973 37.2465 1.79936 37.4563C1.64945 37.6963 1.46984 37.9065 1.34964 38.146C1.19973 38.3562 1.04982 38.5962 0.930079 38.8361C0.80941 39.1058 0.690133 39.3457 0.600096 39.6158C0.505426 39.8741 0.415374 40.134 0.329983 40.3955C0.270113 40.6355 0.210242 40.8754 0.180075 41.1149C0.180075 41.1455 0.149908 41.1752 0.149908 41.2054C0.0900376 41.4751 0.0900377 41.8352 0.0598704 42.0148C0.0301673 42.2251 0 42.4047 0 42.6149C0 42.7346 2.76632e-08 42.8846 0.0301673 43.0048C0.0603345 43.2145 0.0905016 43.3946 0.150372 43.5747C0.210242 43.7543 0.270113 43.9344 0.36015 44.1144V44.1442C0.450188 44.3242 0.569929 44.5043 0.689669 44.6844C0.810338 44.864 0.930079 45.0441 1.07952 45.2241C1.22989 45.374 1.40997 45.5537 1.59004 45.704C1.76966 45.8836 1.94973 46.0336 2.15951 46.1839C2.87935 46.8137 3.05942 47.0235 3.98904 47.5034C4.13894 47.5934 4.28885 47.6533 4.46893 47.7433C4.49909 47.7433 4.5288 47.773 4.55896 47.773C4.55896 47.8334 4.55896 47.8631 4.58867 47.9234C4.61883 48.1634 4.6787 48.4033 4.73904 48.6428C4.79612 48.8897 4.8763 49.1307 4.97852 49.3626C5.06856 49.5427 5.12889 49.7228 5.21847 49.9028C5.24863 49.9627 5.2788 50.0226 5.3085 50.0528C5.42871 50.2927 5.54845 50.5025 5.66865 50.7123L6.11838 51.3421C6.26828 51.5221 6.4479 51.7319 6.62844 51.912C6.80805 52.0921 6.98812 52.2415 7.1979 52.422C7.1979 52.422 7.22807 52.4517 7.25823 52.4517C7.43785 52.6017 7.61792 52.752 7.798 52.8718C8.00777 53.0217 8.21755 53.1419 8.4575 53.2616C8.66774 53.3818 8.90769 53.5016 9.14763 53.5911C9.32724 53.6816 9.53748 53.7415 9.74726 53.8014C9.77743 53.8315 9.80713 53.8315 9.867 53.8617C9.98767 53.8914 10.1371 53.9216 10.2569 53.9513C10.1673 55.571 10.1371 57.1003 10.3775 57.64C10.6467 58.2401 11.9666 56.4106 13.2861 54.3114C13.106 56.3804 12.9863 58.8101 13.2861 59.5294C13.6161 60.2794 15.4155 57.9403 16.9749 55.3608C38.2386 50.4426 57.6426 65.1382 59.6819 85.8914C59.2921 82.6524 55.303 80.853 53.4735 81.3027C52.5741 83.5221 51.0443 86.3713 48.585 88.141C48.7998 86.1382 48.6987 84.1141 48.2852 82.1428C47.6257 84.9019 46.3359 87.481 44.5663 89.7004C41.7176 89.9101 38.8684 88.5308 37.3688 86.4609C37.2486 86.3713 37.2189 86.1917 37.1289 86.071C37.0389 85.8612 36.9488 85.6515 36.8889 85.4417C36.8015 85.2406 36.7409 85.0288 36.7089 84.8119C36.6787 84.6016 36.6787 84.3919 36.6787 84.1519V83.7017C36.7089 83.492 36.7687 83.2822 36.8286 83.0724C36.889 82.8622 36.9488 82.6524 37.0389 82.4426C37.1586 82.2324 37.2486 82.0226 37.3985 81.8128C37.9086 80.3731 37.9086 79.2036 36.979 78.5139C36.7989 78.3961 36.6081 78.2955 36.4091 78.2136C36.2889 78.1839 36.1389 78.124 36.0192 78.0939C35.9292 78.0637 35.8693 78.0335 35.7793 78.0038C35.569 77.9435 35.3592 77.8836 35.1495 77.8539C34.9448 77.7947 34.7328 77.7644 34.5197 77.7639C34.3094 77.7337 34.0695 77.7036 33.8597 77.7036C33.7098 77.7036 33.5599 77.7342 33.4095 77.7342C33.17 77.7342 32.9602 77.7639 32.7505 77.8238C32.5402 77.8539 32.3304 77.8841 32.1202 77.944C31.9104 78.0043 31.7002 78.0642 31.4904 78.1538C31.2806 78.2438 31.1006 78.3338 30.8908 78.4239C30.7107 78.5139 30.5306 78.6336 30.3208 78.7237C23.3332 83.2822 27.5018 93.9591 32.2701 97.0482C30.4708 97.3777 28.6412 97.7676 28.1316 98.1574L28.0713 98.2177C29.3615 98.9974 30.7107 99.6574 32.1202 100.227C34.0398 100.857 36.0791 101.427 36.979 101.667V101.697C39.4638 102.206 42.0046 102.388 44.5366 102.236C57.8222 101.307 68.7089 91.1999 70.6883 77.8841C70.7486 78.1537 70.8085 78.3937 70.8684 78.6638C70.9584 79.2036 71.0782 79.773 71.138 80.3434V80.3731C71.1984 80.6432 71.2281 80.9134 71.2582 81.1528V81.2735C71.2884 81.5427 71.3186 81.8128 71.3186 82.0532C71.3483 82.3827 71.378 82.7123 71.378 83.0427V83.5226C71.378 83.6725 71.4081 83.8521 71.4081 84.002C71.4081 84.1821 71.378 84.3622 71.378 84.5422V84.9618C71.378 85.172 71.3478 85.3516 71.3478 85.5619C71.3478 85.6816 71.3478 85.8018 71.3181 85.9517C71.3181 86.1615 71.2879 86.3713 71.2879 86.6112C71.2578 86.7013 71.2578 86.7913 71.2578 86.8814C71.2281 87.1213 71.1979 87.3315 71.1677 87.571C71.1677 87.6611 71.1677 87.7511 71.138 87.8411C71.1079 88.141 71.048 88.4111 71.0178 88.7109V88.7708C70.958 89.0409 70.8981 89.3407 70.8378 89.6108V89.7004L70.6581 90.5102C70.6581 90.5404 70.628 90.6003 70.628 90.6304C70.5676 90.9001 70.5078 91.1702 70.4182 91.4399V91.5299C70.3282 91.8302 70.2381 92.0998 70.1783 92.3699C70.1481 92.3996 70.1481 92.4298 70.1481 92.4298L69.878 93.3293C69.7582 93.6295 69.6682 93.8992 69.5485 94.199C69.4282 94.4993 69.3382 94.7991 69.2185 95.0687C69.0983 95.369 68.9785 95.6387 68.8583 95.9385H68.8286C68.7079 96.2086 68.5887 96.5084 68.4388 96.7785C68.4086 96.8686 68.3784 96.9284 68.3487 96.9883C68.3186 97.0185 68.3186 97.0486 68.2884 97.0783C66.3391 101.007 63.4602 104.456 59.8611 107.155C59.6211 107.305 59.3812 107.485 59.1417 107.665C59.0814 107.725 58.9913 107.755 58.9314 107.815C58.7217 107.965 58.5114 108.115 58.2719 108.265L58.3615 108.445H58.3917L59.6513 108.265H59.6814C60.4612 108.145 61.2409 107.995 62.0206 107.845C62.2304 107.815 62.4708 107.755 62.6805 107.695C62.8304 107.665 62.9502 107.635 63.1001 107.605C63.3103 107.575 63.5201 107.515 63.7299 107.485C63.91 107.425 64.09 107.395 64.2701 107.335C67.2692 106.615 70.1783 105.625 72.9676 104.456C68.1988 110.964 61.8103 116.212 54.3428 119.661C57.7921 119.421 61.2409 118.852 64.5699 117.892C76.6563 114.323 86.8231 106.195 92.9109 95.2488C91.6752 102.193 88.9205 108.777 84.8437 114.533C87.7501 112.615 90.4356 110.383 92.851 107.875C99.569 100.857 103.978 91.9499 105.477 82.3827C106.5 87.1291 106.794 92.0036 106.347 96.8384C128 66.6378 108.146 35.3274 99.8387 27.0802C99.809 27.0198 99.7788 26.9901 99.7788 26.9303C99.7491 26.96 99.7491 26.96 99.7491 26.9901C99.7491 26.96 99.7491 26.96 99.7189 26.9298C99.7189 27.29 99.6888 27.6496 99.6586 28.0098C99.569 28.6995 99.479 29.3594 99.3588 30.0194C99.2089 30.6789 99.0293 31.3389 98.8492 31.9984C98.6358 32.6478 98.3958 33.2882 98.1298 33.9179C97.854 34.5394 97.5536 35.1497 97.2294 35.7475C96.8999 36.3169 96.5398 36.917 96.1499 37.4568C95.7641 38.0146 95.3538 38.5551 94.92 39.0765C94.4703 39.6163 93.9909 40.0962 93.511 40.5756C93.2286 40.8342 92.9385 41.0843 92.6412 41.3256C92.4013 41.5354 92.191 41.7155 91.9511 41.9252C91.4113 42.3453 90.8716 42.7351 90.2719 43.0948C89.702 43.4549 89.1024 43.8146 88.5023 44.1149C87.8725 44.4147 87.2427 44.6844 86.6134 44.9545C85.9831 45.1944 85.3231 45.4047 84.6636 45.5843C84.0005 45.7628 83.33 45.913 82.654 46.0345C81.9644 46.1542 81.2747 46.2141 80.6147 46.274C80.1348 46.3041 79.6549 46.3343 79.175 46.3343C78.4854 46.3343 77.7957 46.274 77.1357 46.2136C76.4461 46.1542 75.7564 46.0642 75.0964 45.9143C74.4068 45.7936 73.7468 45.614 73.0868 45.4042H73.0571C73.7171 45.3439 74.3766 45.284 75.0366 45.1643C75.7132 45.046 76.3838 44.8958 77.0462 44.7141C77.7057 44.536 78.3562 44.3259 78.9954 44.0847C79.6549 43.8448 80.2847 43.545 80.8844 43.2447C81.5146 42.9449 82.0846 42.6149 82.6842 42.2552C83.2541 41.8654 83.8236 41.4755 84.3638 41.0555C84.9011 40.6378 85.4118 40.187 85.8931 39.7059C86.4031 39.2557 86.8528 38.7461 87.3026 38.2365C87.741 37.7113 88.1611 37.171 88.5622 36.6167C88.6225 36.5272 88.6824 36.407 88.7422 36.3169C89.0421 35.837 89.3419 35.3571 89.612 34.8772C89.9419 34.2827 90.2422 33.6723 90.5119 33.0482C90.7828 32.4204 91.0228 31.7798 91.2313 31.1286C91.4415 30.4988 91.5914 29.8389 91.7413 29.1794C91.8615 28.4897 91.9813 27.8297 92.0411 27.1698C92.1015 26.4801 92.1613 25.7904 92.1613 25.1304C92.1613 24.6506 92.1312 24.1707 92.101 23.6908C92.0416 23.0011 91.9516 22.3416 91.8615 21.6812C91.7433 21.0047 91.593 20.3343 91.4113 19.672C91.2016 19.0422 90.9918 18.3827 90.7518 17.7529C90.5119 17.1231 90.2121 16.4933 89.9118 15.8932C89.5823 15.2936 89.2523 14.694 88.8921 14.1241C88.5094 13.5621 88.1095 13.012 87.6929 12.4746C87.2413 11.9573 86.7813 11.4473 86.3131 10.9449C86.0604 10.6876 85.8004 10.4377 85.5334 10.1954C84.1898 9.15193 82.7988 8.17114 81.3647 7.25614C81.1549 7.13593 80.9749 7.04636 80.7646 6.95632C79.7751 6.32652 78.8455 5.99654 77.9159 5.69672V5.69626Z" fill="#E0234E"/>
</svg>
