<svg width="129" height="129" viewBox="0 0 129 129" fill="none" xmlns="http://www.w3.org/2000/svg">
<path d="M7.17931 3.78284V10.3368H47.9713V3.78284H7.17931ZM78.9293 3.78284V10.3368H121.179V3.78284H78.9293ZM7.17931 17.6178V24.1718H47.9713V17.6178H7.17931ZM78.9293 17.6178V24.1718H121.179V17.6178H78.9293ZM7.17931 31.0888V37.6428H47.9713V31.0888H7.17931V31.0888ZM78.9293 31.0888V37.6428H121.179V31.0888H78.9293V31.0888ZM7.17931 61.3798C7.17931 83.9528 7.25231 84.8998 9.72931 92.2898C12.3873 100.337 15.9573 106.162 21.5293 111.732C31.2903 121.417 43.9293 126.186 61.2653 126.732C81.1523 127.352 96.2673 122.363 106.975 111.587C112.475 106.053 116.59 99.0988 118.957 91.3438C121.107 84.3538 121.179 83.1888 121.179 61.2708V41.2828L100.164 41.3558L79.1123 41.4658C79.1123 41.4658 78.9303 41.5318 78.9303 70.4088C78.9303 103.393 73.4043 109.319 62.7383 109.319C52.0723 109.319 47.8373 103.649 48.0443 69.5718C48.2163 41.3788 47.9343 41.2828 47.9343 41.2828H7.17931V61.3798Z" fill="#4051B5"/>
</svg>
